<svg aria-hidden="true" style="position: absolute; width: 0; height: 0; overflow: hidden;" version="1.1" xmlns="http://www.w3.org/2000/svg" xmlns:xlink="http://www.w3.org/1999/xlink">
<defs>
<symbol id="icon-adobeacrobatreader" viewBox="0 0 32 32">
<path fill="#ee3f24" style="fill: var(--color1, #ee3f24)" d="M31.464 20.491c-0.947-1.013-2.885-1.596-5.632-1.596-1.467 0-3.167 0.147-5.013 0.493-1.043-1.027-2.083-2.227-3.076-3.627-0.707-0.987-1.324-2.027-1.893-3.053 1.084-3.387 1.608-6.147 1.608-8.133 0-2.229-0.804-4.555-3.12-4.555-0.711 0-1.421 0.433-1.8 1.067-1.044 1.877-0.573 5.991 1.223 10.053-0.671 2.027-1.38 3.964-2.267 6.14-0.771 1.835-1.659 3.725-2.564 5.461-5.205 2.112-8.573 4.579-8.889 6.512-0.139 0.729 0.099 1.4 0.609 1.933 0.177 0.147 0.848 0.727 1.973 0.727 3.453 0 7.093-5.707 8.943-9.147 1.42-0.48 2.84-0.916 4.257-1.353 1.557-0.431 3.12-0.777 4.54-1.020 3.647 3.339 6.861 3.867 8.477 3.867 1.989 0 2.699-0.823 2.937-1.496 0.373-0.867 0.093-1.827-0.336-2.32zM29.617 21.896c-0.139 0.725-0.851 1.208-1.848 1.208-0.28 0-0.52-0.049-0.804-0.096-1.813-0.433-3.511-1.355-5.204-2.808 1.667-0.285 3.080-0.333 3.973-0.333 0.987 0 1.84 0.043 2.413 0.192 0.653 0.141 1.693 0.58 1.46 1.84zM19.587 19.62c-1.227 0.253-2.552 0.552-3.925 0.924-1.088 0.297-2.221 0.632-3.36 1.027 0.617-1.203 1.139-2.365 1.611-3.471 0.571-1.36 1.040-2.76 1.513-4.061 0.467 0.813 0.987 1.64 1.507 2.373 0.853 1.16 1.747 2.267 2.64 3.227zM13.387 1.64c0.193-0.387 0.573-0.581 0.904-0.581 0.993 0 1.183 1.157 1.183 2.080 0 1.557-0.472 3.923-1.28 6.623-1.416-3.76-1.513-6.907-0.807-8.121zM8.184 24.169c-2.413 4.057-4.731 6.577-6.151 6.577-0.28 0-0.516-0.1-0.707-0.244-0.285-0.288-0.427-0.629-0.331-1.013 0.284-1.453 2.981-3.484 7.188-5.32z"></path>
</symbol>
<symbol id="icon-android" viewBox="0 0 32 32">
<path fill="#3ddc84" style="fill: var(--color2, #3ddc84)" d="M32 25.333h-32c0.344-3.051 1.396-5.801 2.988-8.158l-0.041 0.064c1.261-1.929 2.896-3.509 4.813-4.669l0.613-0.344-2.693-4.547c-0.062-0.101-0.099-0.223-0.099-0.353 0-0.244 0.129-0.459 0.323-0.579l0.003-0.002c0.098-0.059 0.216-0.094 0.342-0.094 0.246 0 0.461 0.133 0.576 0.331l0.002 0.003 2.773 4.667c1.849-0.76 3.995-1.201 6.244-1.201 0.074 0 0.147 0 0.221 0.001l-0.011-0c0.059-0.001 0.129-0.001 0.198-0.001 2.212 0 4.32 0.441 6.243 1.241l-0.108-0.040 2.76-4.667c0.118-0.199 0.331-0.331 0.576-0.331 0.133 0 0.256 0.039 0.36 0.106l-0.003-0.002c0.191 0.123 0.316 0.334 0.316 0.574 0 0.133-0.038 0.257-0.104 0.362l0.002-0.003-2.693 4.56 0.667 0.373c1.972 1.241 3.594 2.859 4.803 4.765l0.037 0.062c1.464 2.247 2.488 4.913 2.882 7.779l0.011 0.101zM22 19.36c0 0.736 0.597 1.333 1.333 1.333v0c0.736 0 1.333-0.597 1.333-1.333v0c0-0.736-0.597-1.333-1.333-1.333v0c-0.736 0-1.333 0.597-1.333 1.333v0zM7.333 19.36c0 0.736 0.597 1.333 1.333 1.333v0c0.736 0 1.333-0.597 1.333-1.333v0c0-0.736-0.597-1.333-1.333-1.333v0c-0.736 0-1.333 0.597-1.333 1.333v0z"></path>
</symbol>
<symbol id="icon-apple" viewBox="0 0 32 32">
<path fill="#999" style="fill: var(--color3, #999)" d="M9.437 31.4c-0.631-0.421-1.191-0.937-1.659-1.533-0.511-0.617-0.984-1.267-1.419-1.939-1.021-1.493-1.82-3.127-2.373-4.848-0.667-2.003-0.991-3.92-0.991-5.796 0-2.093 0.453-3.92 1.336-5.453 0.653-1.2 1.627-2.204 2.8-2.909 1.133-0.707 2.453-1.093 3.787-1.12 0.467 0 0.973 0.067 1.507 0.2 0.387 0.107 0.853 0.28 1.427 0.493 0.733 0.28 1.133 0.453 1.267 0.493 0.427 0.16 0.787 0.227 1.067 0.227 0.213 0 0.52-0.067 0.86-0.173 0.193-0.067 0.56-0.187 1.080-0.413 0.515-0.187 0.923-0.347 1.247-0.467 0.493-0.147 0.971-0.28 1.4-0.347 0.52-0.080 1.036-0.107 1.531-0.067 0.947 0.067 1.813 0.267 2.587 0.56 1.36 0.547 2.457 1.4 3.276 2.613-0.347 0.213-0.667 0.461-0.967 0.733-0.649 0.573-1.2 1.253-1.64 2.007-0.573 1.027-0.867 2.187-0.859 3.36 0.020 1.444 0.387 2.713 1.12 3.813 0.516 0.8 1.205 1.485 2.045 2.048 0.413 0.28 0.776 0.473 1.12 0.6-0.16 0.5-0.336 0.987-0.54 1.467-0.463 1.076-1.013 2.107-1.667 3.080-0.576 0.84-1.029 1.467-1.373 1.88-0.536 0.64-1.053 1.12-1.573 1.463-0.573 0.38-1.247 0.581-1.936 0.581-0.467 0.020-0.933-0.040-1.379-0.169-0.387-0.127-0.768-0.269-1.141-0.431-0.391-0.179-0.795-0.331-1.207-0.453-0.507-0.133-1.027-0.197-1.552-0.196-0.533 0-1.053 0.067-1.547 0.193-0.413 0.117-0.813 0.261-1.209 0.433-0.56 0.233-0.927 0.387-1.14 0.453-0.432 0.128-0.875 0.205-1.32 0.233-0.693 0-1.339-0.2-1.964-0.617zM18.576 6.787c-0.907 0.453-1.768 0.645-2.631 0.581-0.133-0.861 0-1.747 0.36-2.716 0.32-0.827 0.747-1.573 1.333-2.24 0.613-0.693 1.347-1.267 2.173-1.68 0.88-0.453 1.72-0.693 2.52-0.733 0.107 0.907 0 1.8-0.333 2.76-0.304 0.853-0.757 1.64-1.333 2.347-0.58 0.693-1.3 1.267-2.089 1.681z"></path>
</symbol>
<symbol id="icon-arduino" viewBox="0 0 32 32">
<path fill="#00979d" style="fill: var(--color4, #00979d)" d="M31.76 16c-0.082-4.193-3.5-7.561-7.705-7.561-0.047 0-0.095 0-0.142 0.001l0.007-0c-0.387 0-0.8 0.027-1.2 0.067-3.36 0.493-5.6 2.907-6.84 4.76-1.267-1.853-3.52-4.267-6.853-4.76-0.4-0.040-0.8-0.067-1.2-0.067-0.036-0.001-0.079-0.001-0.121-0.001-4.205 0-7.623 3.368-7.705 7.553l-0 0.008c0.082 4.193 3.5 7.561 7.705 7.561 0.043 0 0.085-0 0.128-0.001l-0.006 0c0.4 0 0.8-0.027 1.227-0.080 3.36-0.48 5.6-2.893 6.853-4.747 1.267 1.853 3.507 4.267 6.853 4.76 0.413 0.040 0.8 0.067 1.213 0.067 0.024 0 0.053 0 0.081 0 4.205 0 7.623-3.368 7.705-7.553l0-0.008zM8.64 20.8c-0.267 0.053-0.573 0.053-0.84 0.053-0.032 0.001-0.071 0.001-0.109 0.001-2.725 0-4.944-2.168-5.024-4.874l-0-0.007c0.088-2.714 2.31-4.881 5.037-4.881 0.038 0 0.077 0 0.115 0.001l-0.006-0c0.267 0 0.56 0.027 0.84 0.053 3.16 0.467 5.093 3.56 5.747 4.827-0.667 1.267-2.6 4.4-5.76 4.827zM17.333 16c0.653-1.24 2.587-4.36 5.747-4.827 0.267-0.053 0.56-0.053 0.827-0.053 0.044-0.001 0.096-0.002 0.148-0.002 2.723 0 4.938 2.17 5.011 4.875l0 0.007c-0.088 2.714-2.31 4.881-5.038 4.881-0.038 0-0.077-0-0.115-0.001l0.006 0c-0.267 0-0.56-0.027-0.827-0.053-3.147-0.467-5.093-3.587-5.76-4.827zM5.613 16.787h4.72v-1.547h-4.707zM24.453 16.787h1.587v-1.547h-1.6v-1.587h-1.507v1.6h-1.6v1.533h1.6v1.573h1.533zM32 9.413c0 0.4-0.293 0.68-0.707 0.68-0.008 0-0.017 0.001-0.027 0.001-0.371 0-0.673-0.297-0.68-0.667v-0.001c0-0.373 0.32-0.693 0.707-0.693 0.413 0 0.707 0.293 0.707 0.68zM30.787 9.413c0 0.293 0.213 0.533 0.533 0.533 0.293 0 0.507-0.24 0.507-0.533s-0.213-0.533-0.507-0.533c-0.32-0.027-0.533 0.213-0.533 0.533zM31.187 9.76h-0.133v-0.693l0.267-0.013c0.12 0 0.187 0.013 0.24 0.040s0.080 0.080 0.080 0.147c0 0.080-0.053 0.133-0.147 0.147 0.067 0.027 0.093 0.080 0.12 0.173l0.040 0.173h-0.16c-0.027-0.027-0.027-0.093-0.053-0.173-0.027-0.067-0.053-0.093-0.147-0.093h-0.067zM31.213 9.36h0.080c0.093 0 0.133-0.013 0.133-0.093 0-0.067-0.040-0.093-0.133-0.093h-0.093v0.187z"></path>
</symbol>
<symbol id="icon-atom" viewBox="0 0 32 32">
<path fill="#66595c" style="fill: var(--color5, #66595c)" d="M27.328 12.035c-2.911-1.24-6.821-2.040-11-2.26-0.667-0.040-1.316-0.053-1.933-0.053 3.091-3.773 6.403-6.307 8.583-6.387 0.429-0.017 0.793 0.073 1.084 0.261 0.941 0.611 1.207 2.357 0.727 4.787-0.053 0.333 0.16 0.657 0.48 0.72 0.333 0.067 0.653-0.147 0.72-0.48 0.6-3.040 0.16-5.128-1.253-6.051-0.507-0.331-1.12-0.487-1.8-0.461-2.733 0.103-6.587 3.067-10.12 7.627-1.539 0.047-2.987 0.173-4.309 0.383-0.861-3.863-0.52-6.636 0.792-7.303 0.184-0.097 0.38-0.147 0.609-0.165 0.929-0.072 2.213 0.527 3.613 1.693 0.259 0.213 0.648 0.187 0.861-0.080 0.217-0.26 0.179-0.64-0.080-0.86-1.68-1.392-3.229-2.072-4.496-1.979-0.381 0.033-0.741 0.131-1.071 0.293-1.587 0.809-2.227 3.103-1.827 6.451 0.093 0.693 0.213 1.416 0.387 2.16-4.375 0.875-7.161 2.627-7.281 4.832-0.080 1.56 1.153 3.045 3.573 4.296 0.299 0.153 0.669 0.040 0.827-0.267 0.152-0.299 0.040-0.667-0.267-0.821-1.933-0.995-2.973-2.117-2.911-3.144 0.067-1.44 2.363-2.92 6.347-3.707 0.36 1.325 0.827 2.709 1.4 4.12-1.357 2.517-2.341 4.996-2.849 7.2-0.747 3.287-0.347 5.627 1.147 6.597 0.48 0.312 1.040 0.467 1.663 0.467 1.247 0 2.756-0.613 4.463-1.829 0.28-0.2 0.341-0.58 0.147-0.853-0.196-0.275-0.577-0.341-0.853-0.141-2.059 1.471-3.792 1.963-4.749 1.337-1.013-0.66-1.235-2.591-0.613-5.301 0.427-1.848 1.209-3.907 2.277-6.027 0.267 0.584 0.547 1.168 0.84 1.751 1.9 3.728 4.227 6.969 6.547 9.127 1.848 1.72 3.565 2.617 4.98 2.617 0.467 0 0.907-0.1 1.301-0.297 1.527-0.78 2.187-2.947 1.864-6.1-0.299-2.951-1.413-6.547-3.139-10.133-0.147-0.303-0.512-0.431-0.813-0.288-0.307 0.147-0.44 0.513-0.293 0.816 3.587 7.469 3.84 13.587 1.827 14.613-2.12 1.084-7.232-3.14-11.187-10.907-0.453-0.873-0.849-1.733-1.2-2.573 0.453-0.811 0.933-1.627 1.46-2.44 0.527-0.805 1.075-1.584 1.632-2.327h0.525c0.72 0 1.501 0.013 2.312 0.064 8.707 0.457 14.633 3.413 14.512 5.779-0.053 1.020-1.232 2.051-3.233 2.827-0.312 0.128-0.469 0.48-0.347 0.795 0.093 0.24 0.32 0.389 0.568 0.389 0.077 0 0.152-0.013 0.223-0.040 2.54-0.987 3.933-2.341 4.013-3.907 0.093-1.773-1.56-3.48-4.667-4.8zM10.773 12.6c-0.36 0.553-0.693 1.103-1.019 1.659-0.389-1.024-0.709-2.013-0.964-2.953 0.951-0.147 1.98-0.253 3.080-0.32-0.373 0.52-0.739 1.059-1.093 1.613zM16.007 14.167c-1.013 0-1.833 0.821-1.833 1.833s0.821 1.833 1.833 1.833v0c1.013 0 1.833-0.821 1.833-1.833s-0.821-1.833-1.833-1.833v0z"></path>
</symbol>
<symbol id="icon-coursera" viewBox="0 0 32 32">
<path fill="#2a73cc" style="fill: var(--color6, #2a73cc)" d="M31.989 15.741c-0.005-0.142-0.014-0.271-0.026-0.399l0.002 0.027v-0.005c-0.125-1.412-0.601-2.692-1.338-3.78l0.018 0.028c-0.349-0.521-0.729-0.974-1.153-1.383l-0.003-0.002c-0.625-0.598-1.346-1.101-2.137-1.485l-0.050-0.022c-1.167-0.562-2.537-0.891-3.985-0.891-0.029 0-0.059 0-0.088 0l0.004-0c-0.012-0-0.026-0-0.040-0-1.204 0-2.357 0.217-3.422 0.614l0.068-0.022c-0.93 0.329-1.735 0.779-2.447 1.342l0.018-0.014c-0.164 0.134-0.309 0.26-0.449 0.391l0.005-0.005-0.113 0.113-0.156 0.167h0.001l-0.075 0.073-0.035 0.037-0.188 0.196c-0.139 0.156-0.269 0.312-0.395 0.465v-0.003l-0.005-0.004c-0.256 0.311-0.493 0.635-0.667 0.924-0.119 0.187-0.235 0.377-0.345 0.569l-1.529 3.092 0.003 0.001-0.080 0.157-0.168 0.341c-0.335 0.679-0.695 1.356-1.095 1.913-0.896 0.983-1.908 1.464-3.208 1.464-0.091 0-0.185-0.004-0.279-0.011-0.784-0.031-1.456-0.216-2.052-0.569-0.564-0.328-1.016-0.795-1.316-1.355l-0.009-0.018c-0.275-0.492-0.437-1.079-0.437-1.705 0-0.042 0.001-0.085 0.002-0.127l-0 0.006 0.003-0.045c0.041-1.013 0.428-1.803 1.205-2.481 0.189-0.165 0.388-0.304 0.595-0.427 0.028-0.017 0.059-0.032 0.087-0.048 0.579-0.316 1.236-0.473 1.989-0.473l0.235 0.007c1.199 0.045 2.123 0.419 2.86 1.151l2.312-4.151c-0.537-0.36-1.152-0.679-1.803-0.926l-0.063-0.021c-0.025-0.009-0.053-0.021-0.080-0.029-0.083-0.029-0.164-0.060-0.248-0.087-0.669-0.229-1.447-0.393-2.252-0.462l-0.036-0.002c-0.058-0.007-0.079-0.010-0.1-0.012l0.039 0.004c-0.121-0.007-0.245-0.021-0.367-0.027-0.112-0.005-0.251-0.008-0.39-0.009l-0.006-0h-0.073c-0.015-0-0.033-0-0.051-0-1.448 0-2.819 0.33-4.042 0.918l0.056-0.024c-1.375 0.661-2.503 1.646-3.317 2.858l-0.019 0.030c-0.849 1.251-1.355 2.795-1.355 4.457 0 0.018 0 0.036 0 0.054v-0.003c-0.003 2.085 0.757 3.917 2.268 5.457 1.579 1.615 3.628 2.485 6.089 2.588 0.157 0.007 0.313 0.011 0.471 0.011 1.393 0 2.681-0.248 3.837-0.744 0.289-0.124 0.569-0.268 0.856-0.429 0.156-0.089 0.304-0.185 0.451-0.287l0.107-0.073 0.183-0.124c0.219-0.157 0.423-0.328 0.623-0.508l0.069-0.067c0.117-0.111 0.235-0.224 0.345-0.34l0.415-0.469 0.157-0.197 0.075-0.108 0.073-0.105c0.616-1.035 2.62-4.801 2.62-4.801v-0.008l0.12-0.229 0.099-0.18c0.296-0.537 0.509-0.919 0.792-1.32l0.008-0.013c0.657-0.956 1.792-1.636 3.128-1.751 2.24-0.193 4.203 1.279 4.383 3.287 0.18 2.009-1.489 3.795-3.731 3.988-0.117 0.011-0.252 0.017-0.389 0.017-0.34 0-0.671-0.037-0.989-0.108l0.030 0.006-0.012 0.004c-1.643-0.343-2.689-1.54-3.205-2.077l-2.156 3.965c0 0 0.671 0.675 1.129 1.012 0.461 0.337 1.055 0.668 1.528 0.875 1.115 0.496 2.416 0.785 3.784 0.785h0c0.161 0 0.129 0 0.296-0.007 2.459-0.103 4.652-1.045 6.233-2.66 1.497-1.533 2.311-3.284 2.317-5.357v-0.063z"></path>
</symbol>
<symbol id="icon-cplusplus" viewBox="0 0 32 32">
<path fill="#00599c" style="fill: var(--color7, #00599c)" d="M29.857 8c-0.223-0.387-0.531-0.724-0.869-0.92l-11.755-6.787c-0.677-0.391-1.785-0.391-2.463 0l-11.757 6.787c-0.677 0.391-1.231 1.351-1.231 2.133v13.573c0 0.392 0.139 0.827 0.361 1.213s0.531 0.724 0.869 0.919l11.755 6.788c0.677 0.391 1.785 0.391 2.463 0l11.755-6.788c0.339-0.195 0.647-0.532 0.869-0.919s0.361-0.821 0.361-1.213v-13.573c0.003-0.392-0.136-0.827-0.359-1.213zM16 25.479c-5.227 0-9.479-4.252-9.479-9.479s4.252-9.479 9.479-9.479c3.487 0.007 6.533 1.889 8.184 4.691l0.024 0.044-4.101 2.375c-0.837-1.426-2.361-2.369-4.106-2.372h-0c-2.613 0-4.739 2.127-4.739 4.74s2.125 4.74 4.739 4.74c1.745-0.004 3.269-0.946 4.095-2.348l0.012-0.022 4.103 2.373c-1.675 2.847-4.722 4.729-8.208 4.736h-0.001zM25.479 16.527h-1.053v1.053h-1.053v-1.053h-1.053v-1.053h1.053v-1.053h1.053v1.053h1.053zM29.428 16.527h-1.053v1.053h-1.053v-1.053h-1.052v-1.053h1.052v-1.053h1.053v1.053h1.053z"></path>
</symbol>
<symbol id="icon-csharp" viewBox="0 0 32 32">
<path fill="#239120" style="fill: var(--color8, #239120)" d="M16 0c-8.837 0-16 7.163-16 16v0c0 8.837 7.163 16 16 16v0c8.837 0 16-7.163 16-16v0c0-8.837-7.163-16-16-16v0zM12.568 9.493c0.954 0.006 1.863 0.191 2.697 0.524l-0.050-0.018v1.575c-0.84-0.475-1.844-0.755-2.914-0.755-0.030 0-0.060 0-0.090 0.001l0.005-0c-0.045-0.002-0.099-0.003-0.152-0.003-1.319 0-2.509 0.557-3.345 1.449l-0.002 0.002c-0.842 0.957-1.356 2.22-1.356 3.603 0 0.095 0.002 0.19 0.007 0.285l-0.001-0.013c-0.004 0.081-0.007 0.175-0.007 0.27 0 1.304 0.48 2.495 1.272 3.408l-0.005-0.006c0.785 0.842 1.901 1.367 3.14 1.367 0.059 0 0.119-0.001 0.178-0.004l-0.008 0c0.046 0.001 0.1 0.002 0.154 0.002 1.154 0 2.234-0.315 3.16-0.863l-0.029 0.016-0.005 1.44c-0.944 0.47-2.057 0.745-3.233 0.745-0.094 0-0.187-0.002-0.28-0.005l0.013 0c-0.073 0.003-0.159 0.005-0.246 0.005-1.595 0-3.034-0.665-4.056-1.733l-0.002-0.002c-1.007-1.125-1.623-2.618-1.623-4.255 0-0.102 0.002-0.204 0.007-0.304l-0.001 0.014c-0.004-0.086-0.006-0.187-0.006-0.289 0-1.781 0.695-3.399 1.829-4.598l-0.003 0.003c1.122-1.148 2.686-1.86 4.417-1.86 0.075 0 0.15 0.001 0.225 0.004l-0.011-0c0.040-0.002 0.095-0.004 0.151-0.005l0.009-0c0.042-0.001 0.092-0.001 0.142-0.001 0.007 0 0.015 0 0.022 0h-0.001zM20.385 9.7h1.115l-0.74 3.536h2.215l0.756-3.536h1.080l-0.74 3.536 2.309-0.005-0.2 0.929h-2.3l-0.549 2.64h2.469l-0.235 0.931h-2.421l-0.773 3.5h-1.107l0.756-3.5h-2.2l-0.74 3.5h-1.080l0.74-3.5h-2.32l0.175-0.931h2.331l0.535-2.635h-2.435l0.184-0.929h2.435zM20.575 14.16l-0.575 2.64h2.231l0.564-2.64z"></path>
</symbol>
<symbol id="icon-css3" viewBox="0 0 32 32">
<path fill="#1572b6" style="fill: var(--color9, #1572b6)" d="M2 0h28l-2.547 28.751-11.484 3.249-11.42-3.251zM24.787 5.884l-17.573-0.004 0.284 3.496 13.5 0.003-0.34 3.621h-8.853l0.32 3.431h8.243l-0.488 4.697-3.88 1.072-3.941-1.080-0.251-2.813h-3.48l0.387 5.14 7.287 2.271 7.164-2.040z"></path>
</symbol>
<symbol id="icon-csswizardry" viewBox="0 0 32 32">
<path fill="#f43059" style="fill: var(--color10, #f43059)" d="M0.040 21.904v-20.413c0-0.824 0.667-1.491 1.489-1.491h28.871c0.832 0 1.493 0.667 1.493 1.493v19.68c-0.893-0.547-1.947-0.821-3.143-0.821-1.672 0-2.94 0.4-3.805 1.195-0.867 0.797-1.293 1.771-1.293 2.967 0 1.293 0.44 2.253 1.333 2.867 0.52 0.38 1.48 0.72 2.853 1.016l1.4 0.32c0.84 0.177 1.427 0.4 1.813 0.613 0.373 0.244 0.573 0.583 0.573 1.020 0 0.755-0.387 1.273-1.16 1.531l-0.040 0.021h-2.947c-0.383-0.139-0.68-0.339-0.92-0.6-0.24-0.299-0.4-0.733-0.48-1.351h-2.64c0 0.755 0.137 1.393 0.44 1.973h-2.24c0.253-0.52 0.4-1.097 0.4-1.756 0-1.173-0.4-2.067-1.181-2.688-0.499-0.396-1.253-0.713-2.251-0.956l-2.293-0.536c-0.88-0.187-1.453-0.373-1.733-0.533-0.413-0.24-0.613-0.6-0.613-1.053 0-0.507 0.213-0.907 0.627-1.187 0.44-0.28 1-0.413 1.72-0.413 0.653 0 1.173 0.12 1.613 0.347 0.659 0.341 1 0.92 1.053 1.716h2.667c-0.040-1.395-0.553-2.471-1.533-3.205-0.992-0.733-2.167-1.113-3.56-1.113-1.673 0-2.927 0.4-3.804 1.173-0.853 0.777-1.293 1.773-1.293 2.947 0 1.293 0.44 2.251 1.333 2.867 0.536 0.36 1.493 0.697 2.867 1.013l1.393 0.32c0.813 0.18 1.413 0.38 1.813 0.62 0.373 0.24 0.573 0.573 0.573 1.013 0 0.76-0.4 1.253-1.173 1.533h-2.987c-0.379-0.141-0.693-0.341-0.92-0.62-0.24-0.293-0.413-0.752-0.493-1.352h-2.689c0 0.744 0.14 1.4 0.427 1.973h-2.787c0.44-0.693 0.737-1.493 0.884-2.387h-2.737c-0.187 0.68-0.416 1.197-0.7 1.533-0.347 0.44-0.8 0.72-1.36 0.86h-1.636c-0.6-0.14-1.116-0.477-1.533-1.013-0.619-0.744-0.917-1.859-0.917-3.333 0-1.493 0.307-2.627 0.88-3.44 0.6-0.817 1.373-1.213 2.387-1.213 1 0 1.733 0.28 2.253 0.859 0.28 0.32 0.52 0.8 0.693 1.435h2.773c-0.040-0.824-0.347-1.653-0.915-2.48-1.029-1.467-2.659-2.2-4.885-2.2-1.547 0-2.845 0.48-3.88 1.413zM31.899 26.752v-2.072h-0.688c-0.047-0.796-0.4-1.363-1.044-1.699-0.417-0.219-0.956-0.331-1.591-0.331-0.72 0-1.273 0.147-1.693 0.429-0.416 0.287-0.637 0.691-0.637 1.203 0 0.473 0.221 0.827 0.636 1.060 0.293 0.14 0.867 0.339 1.747 0.539l2.293 0.547c0.4 0.080 0.747 0.2 1.067 0.307z"></path>
</symbol>
<symbol id="icon-dot-net" viewBox="0 0 32 32">
<path fill="#5c2d91" style="fill: var(--color11, #5c2d91)" d="M4.223 10.087v11.665h1.364v-8.433c0.003-0.094 0.004-0.204 0.004-0.314 0-0.453-0.025-0.9-0.074-1.339l0.005 0.054h0.051c0.108 0.28 0.233 0.52 0.38 0.744l-0.009-0.015 5.996 9.303h1.676v-11.665h-1.362v8.203c-0.002 0.079-0.003 0.172-0.003 0.265 0 0.511 0.031 1.014 0.091 1.509l-0.006-0.059h-0.031c-0.073-0.141-0.231-0.4-0.474-0.78l-5.836-9.138zM16.643 10.087v11.665h6.2l0.006-1.28h-4.812v-4.044h4.211v-1.229h-4.211v-3.878h4.518v-1.235zM23.893 10.087v1.235h3.353v10.431h1.362v-10.431h3.392v-1.235zM0.871 20.089c-0.241 0.006-0.456 0.11-0.608 0.274l-0.001 0.001c-0.162 0.162-0.263 0.386-0.263 0.634 0 0.002 0 0.004 0 0.006v-0c-0 0.003-0 0.008-0 0.012 0 0.246 0.1 0.468 0.262 0.628l0 0c0.158 0.166 0.38 0.269 0.626 0.269 0.005 0 0.010-0 0.014-0h-0.001c0.002 0 0.004 0 0.006 0 0.249 0 0.474-0.103 0.634-0.268l0-0c0.166-0.16 0.269-0.384 0.269-0.632 0-0.003 0-0.006-0-0.009v0c0-0.001 0-0.002 0-0.003 0-0.25-0.103-0.475-0.268-0.637l-0-0c-0.16-0.169-0.387-0.275-0.638-0.275-0.001 0-0.002 0-0.002 0h0c-0.004-0-0.008-0-0.012-0-0.007 0-0.013 0-0.020 0l0.001-0z"></path>
</symbol>
<symbol id="icon-electron" viewBox="0 0 32 32">
<path fill="#47848f" style="fill: var(--color12, #47848f)" d="M3.531 15.571c-1.384-2.413-1.665-4.672-0.681-6.375 1.317-2.283 4.624-3.080 8.805-2.319 0.211 0.029 0.371 0.209 0.371 0.425 0 0.237-0.192 0.429-0.429 0.429-0.034 0-0.067-0.004-0.098-0.011l0.003 0.001c-3.867-0.704-6.815 0.007-7.909 1.904-0.807 1.396-0.564 3.345 0.683 5.52 0.044 0.066 0.071 0.148 0.071 0.236 0 0.237-0.192 0.429-0.429 0.429-0.168 0-0.314-0.097-0.384-0.237l-0.001-0.002zM23.424 7.479c2.447 0.032 4.208 0.795 5.001 2.168 1.093 1.892 0.24 4.793-2.291 7.783-0.074 0.077-0.12 0.182-0.12 0.298 0 0.237 0.192 0.429 0.429 0.429 0.14 0 0.265-0.067 0.343-0.171l0.001-0.001c2.739-3.235 3.695-6.488 2.38-8.767-0.968-1.676-3.013-2.56-5.732-2.596-0.009-0.001-0.019-0.001-0.029-0.001-0.237 0-0.429 0.192-0.429 0.429s0.192 0.429 0.429 0.429c0.006 0 0.012-0 0.018-0l-0.001 0zM20.952 27.797c-0.063-0.039-0.14-0.061-0.221-0.061-0.155 0-0.292 0.083-0.367 0.206l-0.001 0.002c-1.245 2.071-2.773 3.199-4.347 3.199-2.189 0-4.277-2.196-5.6-5.891-0.057-0.174-0.219-0.297-0.409-0.297-0.237 0-0.429 0.192-0.429 0.429 0 0.057 0.011 0.111 0.031 0.16l-0.001-0.003c1.431 3.997 3.773 6.459 6.405 6.459 1.92 0 3.697-1.309 5.084-3.613 0.039-0.063 0.062-0.14 0.062-0.222 0-0.155-0.082-0.291-0.205-0.366l-0.002-0.001zM30.76 24.339c-0.002 1.133-0.92 2.050-2.053 2.050-0.448 0-0.863-0.144-1.201-0.387l0.006 0.004c-3.273 1.927-9.528 0.947-15.413-2.453-2.507-1.447-4.703-3.189-6.393-5.047-0.076-0.077-0.124-0.184-0.124-0.301 0-0.237 0.192-0.429 0.429-0.429 0.132 0 0.25 0.059 0.328 0.153l0.001 0.001c1.629 1.791 3.756 3.479 6.187 4.881 5.556 3.208 11.404 4.16 14.396 2.541-0.169-0.292-0.269-0.643-0.269-1.017 0-1.134 0.919-2.053 2.053-2.053s2.053 0.919 2.053 2.053c0 0.002 0 0.003 0 0.005v-0zM5.344 24.339c0 0.001 0 0.002 0 0.004 0 1.134-0.919 2.053-2.053 2.053s-2.053-0.919-2.053-2.053c0-0.769 0.423-1.44 1.050-1.792l0.010-0.005c-0.311-3.836 3.72-8.979 9.813-12.496 2.531-1.461 5.165-2.499 7.641-3.028 0.018-0.003 0.039-0.004 0.060-0.004 0.237 0 0.429 0.192 0.429 0.429 0 0.194-0.129 0.359-0.306 0.411l-0.003 0.001c-2.387 0.512-4.937 1.516-7.393 2.933-5.739 3.313-9.531 8.089-9.397 11.503 0.051-0.004 0.1-0.008 0.151-0.008 1.133 0 2.053 0.92 2.052 2.052zM13.963 2.053c0.041-1.102 0.944-1.979 2.052-1.979s2.011 0.878 2.052 1.976l0 0.004c0 0.031-0.003 0.060-0.004 0.089 3.399 1.756 5.76 7.747 5.76 14.671 0 2.847-0.397 5.579-1.139 7.947-0.050 0.186-0.217 0.32-0.415 0.32-0.237 0-0.429-0.192-0.429-0.429 0-0.053 0.009-0.103 0.027-0.15l-0.001 0.003c0.715-2.283 1.1-4.929 1.1-7.691 0-6.52-2.168-12.127-5.129-13.817-0.348 0.665-1.033 1.111-1.823 1.111-1.133 0-2.051-0.918-2.051-2.051 0-0.001 0-0.002 0-0.003v0zM15.701 15.361c-0.675 0.149-1.172 0.743-1.172 1.452 0 0.82 0.665 1.485 1.485 1.485 0.111 0 0.219-0.012 0.323-0.035l-0.010 0.002c0.675-0.149 1.172-0.743 1.172-1.452 0-0.82-0.665-1.485-1.485-1.485-0.111 0-0.219 0.012-0.323 0.035l0.010-0.002z"></path>
</symbol>
<symbol id="icon-gmail" viewBox="0 0 32 32">
<path fill="#d14836" style="fill: var(--color13, #d14836)" d="M32 6v20c0 1.133-0.867 2-2 2h-2v-18.151l-12 8.617-12-8.617v18.151h-2c-1.135 0-2-0.867-2-2v-20c0-0.567 0.216-1.067 0.575-1.424 0.359-0.363 0.86-0.576 1.425-0.576h0.667l13.333 9.667 13.333-9.667h0.667c0.567 0 1.067 0.216 1.425 0.576 0.36 0.357 0.575 0.857 0.575 1.424z"></path>
</symbol>
<symbol id="icon-html5" viewBox="0 0 32 32">
<path fill="#e34f26" style="fill: var(--color14, #e34f26)" d="M2 0h28l-2.547 28.751-11.484 3.249-11.419-3.251zM11.375 13l-0.309-3.624 13.412 0.004 0.307-3.496-17.568-0.004 0.931 10.68h12.168l-0.435 4.568-3.88 1.072-3.94-1.080-0.251-2.813h-3.479l0.44 5.561 7.229 1.933 7.172-1.924 0.992-10.876z"></path>
</symbol>
<symbol id="icon-javascript" viewBox="0 0 32 32">
<path fill="#f7df1e" style="fill: var(--color15, #f7df1e)" d="M0 0h32v32h-32zM29.379 24.368c-0.233-1.46-1.184-2.687-4.004-3.831-0.981-0.46-2.072-0.78-2.396-1.52-0.121-0.44-0.14-0.68-0.061-0.94 0.2-0.861 1.22-1.12 2.020-0.88 0.52 0.16 1 0.56 1.301 1.2 1.379-0.901 1.379-0.901 2.34-1.5-0.36-0.56-0.539-0.801-0.781-1.040-0.84-0.94-1.959-1.42-3.779-1.379l-0.94 0.119c-0.901 0.22-1.76 0.7-2.28 1.34-1.52 1.721-1.081 4.721 0.759 5.961 1.82 1.36 4.481 1.659 4.821 2.94 0.32 1.56-1.16 2.060-2.621 1.88-1.081-0.24-1.68-0.781-2.34-1.781l-2.44 1.401c0.28 0.64 0.6 0.919 1.080 1.479 2.32 2.341 8.12 2.221 9.161-1.339 0.039-0.12 0.32-0.94 0.099-2.2zM17.401 14.708h-2.997c0 2.584-0.012 5.152-0.012 7.74 0 1.643 0.084 3.151-0.184 3.615-0.44 0.919-1.573 0.801-2.088 0.64-0.528-0.261-0.796-0.621-1.107-1.14-0.084-0.14-0.147-0.261-0.169-0.261l-2.433 1.5c0.407 0.84 1 1.563 1.765 2.023 1.14 0.68 2.672 0.9 4.276 0.54 1.044-0.301 1.944-0.921 2.415-1.881 0.68-1.24 0.536-2.76 0.529-4.461 0.016-2.739 0-5.479 0-8.239z"></path>
</symbol>
<symbol id="icon-meetup" viewBox="0 0 32 32">
<path fill="#ed1c40" style="fill: var(--color16, #ed1c40)" d="M9.307 0.74c-0.050 0-0.099 0.006-0.145 0.016l0.005-0.001c-0.383 0.083-0.627 0.458-0.544 0.841s0.459 0.627 0.841 0.544c0.323-0.072 0.56-0.355 0.56-0.694 0-0.053-0.006-0.105-0.017-0.154l0.001 0.005c-0.072-0.335-0.371-0.561-0.701-0.557zM17.914 1.591c-0.001 0-0.003 0-0.005 0-0.251 0-0.486 0.071-0.686 0.193l0.006-0.003c-0.626 0.376-0.832 1.186-0.456 1.813s1.189 0.829 1.815 0.453c0.626-0.376 0.829-1.187 0.453-1.813-0.234-0.386-0.651-0.641-1.127-0.643h-0zM13.875 4.573c-1.299 0.006-2.609 0.389-3.761 1.185-1.166 0.805-1.995 1.915-2.463 3.146-0.678 0.092-1.346 0.319-1.948 0.734-1.989 1.374-2.515 4.052-1.253 6.083-1.713 1.568-2.109 4.181-0.807 6.198 0.772 1.196 1.984 1.916 3.287 2.13 0.024 0.976 0.317 1.955 0.914 2.818 1.632 2.361 4.87 2.954 7.232 1.323 0.090-0.063 0.16-0.141 0.245-0.208 1.316 1.175 3.294 1.367 4.81 0.32 0.809-0.559 1.324-1.372 1.549-2.255 1.186 0.043 2.394-0.258 3.445-0.984 2.522-1.742 3.199-5.149 1.586-7.719 1.295-1.092 1.573-3.002 0.578-4.412-0.444-0.629-1.070-1.041-1.755-1.245 0.1-1.312-0.227-2.664-1.034-3.831-1.572-2.274-4.444-3.109-6.927-2.208-1.038-0.674-2.309-1.075-3.672-1.075-0.009 0-0.018 0-0.027 0h0.001zM6.404 5.661c-0.212 0.002-0.407 0.069-0.568 0.182l0.003-0.002c-0.46 0.318-0.576 0.946-0.258 1.406s0.949 0.576 1.409 0.258c0.266-0.185 0.437-0.488 0.437-0.832 0-0.215-0.067-0.414-0.182-0.578l0.002 0.003c-0.185-0.266-0.489-0.438-0.833-0.438-0.004 0-0.008 0-0.012 0h0.001zM27.729 8.823c-0.235 0.003-0.452 0.078-0.631 0.203l0.004-0.002c-0.296 0.206-0.486 0.544-0.486 0.927 0 0.622 0.505 1.127 1.127 1.127s1.127-0.505 1.127-1.127c0-0.24-0.075-0.462-0.202-0.645l0.002 0.004c-0.206-0.296-0.545-0.487-0.928-0.487-0.004 0-0.009 0-0.013 0h0.001zM16.862 10.193c0.084 0.001 0.166 0.007 0.242 0.018 0.305 0.045 0.487 0.159 0.602 0.25 0.224 0.179 0.363 0.322 0.575 0.523 0.319 0.303 0.551 0.119 0.711 0.026 0.277-0.161 0.492-0.291 1.313-0.276 0.844 0.015 1.817 0.315 2.018 1.755 0.224 1.599-2.621 5.719-2.422 7.63 0.141 1.347 2.419 0.398 2.612 1.628 0.25 1.596-2.847 1.003-3.555 0.656-1.109-0.544-1.783-1.787-1.495-3.013 0.215-0.918 2.267-4.664 2.344-5.24 0.078-0.587-0.236-0.636-0.432-0.646-0.253-0.013-0.453 0.108-0.701 0.482-0.226 0.341-2.776 5.447-2.997 5.865-0.396 0.746-0.893 0.925-1.393 0.898-0.73-0.038-1.064-0.427-0.958-1.13 0.062-0.413 1.679-4.065 1.763-4.635 0.052-0.352-0.018-0.727-0.367-0.906s-0.762 0.094-0.885 0.302c-0.171 0.287-2.464 6.275-2.708 6.719-0.422 0.768-0.868 1.013-1.536 1.044-1.582 0.075-2.754-1.225-2.237-2.82 0.231-0.71 1.755-6.095 2.526-7.466 0.518-0.921 1.957-1.622 2.956-1.19 0.517 0.224 1.234 0.584 1.445 0.677 0.488 0.216 1.013-0.37 1.219-0.549s0.402-0.369 0.654-0.477c0.188-0.081 0.457-0.126 0.709-0.125zM31.37 12.935c-0.045 0.001-0.088 0.007-0.129 0.016l0.004-0.001c-0.284 0.062-0.493 0.311-0.493 0.609 0 0.046 0.005 0.091 0.015 0.135l-0.001-0.004c0.063 0.284 0.313 0.493 0.612 0.493 0.046 0 0.091-0.005 0.135-0.014l-0.004 0.001c0.336-0.073 0.552-0.406 0.479-0.742-0.064-0.284-0.313-0.492-0.612-0.492-0.002 0-0.004 0-0.006 0h0zM1.344 14.015c-0.004-0-0.008-0-0.012-0-0.454 0-0.854 0.227-1.094 0.574l-0.003 0.004c-0.416 0.607-0.264 1.438 0.344 1.854s1.438 0.261 1.854-0.346 0.264-1.435-0.344-1.852c-0.208-0.145-0.466-0.232-0.744-0.234h-0.001zM29.737 16.807c-0.060 0-0.119 0.007-0.175 0.019l0.006-0.001c-0.38 0.084-0.66 0.418-0.66 0.817 0 0.063 0.007 0.124 0.020 0.183l-0.001-0.006c0.084 0.381 0.418 0.662 0.819 0.662 0.062 0 0.123-0.007 0.182-0.020l-0.006 0.001c0.452-0.098 0.741-0.543 0.643-0.995-0.085-0.381-0.42-0.662-0.82-0.662-0.003 0-0.005 0-0.008 0h0zM5.417 24.937c-0.044 0.001-0.086 0.007-0.127 0.016l0.004-0.001c-0.334 0.072-0.549 0.402-0.477 0.737s0.403 0.546 0.737 0.474c0.281-0.062 0.488-0.31 0.488-0.605 0-0.047-0.005-0.092-0.015-0.136l0.001 0.004c-0.062-0.282-0.31-0.49-0.607-0.49-0.002 0-0.004 0-0.006 0h0zM23.651 27.005c-0.292 0.003-0.561 0.095-0.783 0.25l0.005-0.003c-0.634 0.438-0.793 1.308-0.354 1.943s1.308 0.792 1.943 0.354c0.634-0.438 0.793-1.309 0.354-1.943-0.255-0.366-0.673-0.602-1.146-0.602-0.006 0-0.012 0-0.019 0h0.001zM15.2 29.539c-0.18 0.002-0.345 0.059-0.482 0.155l0.003-0.002c-0.226 0.157-0.372 0.416-0.372 0.708 0 0.183 0.057 0.353 0.155 0.493l-0.002-0.003c0.157 0.226 0.416 0.371 0.708 0.371 0.183 0 0.353-0.057 0.492-0.155l-0.003 0.002c0.226-0.157 0.372-0.416 0.372-0.708 0-0.183-0.057-0.353-0.155-0.492l0.002 0.003c-0.157-0.226-0.416-0.372-0.709-0.372-0.003 0-0.007 0-0.010 0h0.001z"></path>
</symbol>
<symbol id="icon-microsoftexcel" viewBox="0 0 32 32">
<path fill="#217346" style="fill: var(--color17, #217346)" d="M31.404 4.136h-10.72v1.984h3.16v3.139h-3.16v1h3.16v3.143h-3.16v1.028h3.16v2.972h-3.16v1.191h3.16v2.979h-3.16v1.191h3.16v2.996h-3.16v2.185h10.72c0.169-0.051 0.311-0.251 0.424-0.597 0.113-0.349 0.172-0.633 0.172-0.848v-21.999c0-0.171-0.059-0.273-0.172-0.309-0.113-0.035-0.255-0.053-0.424-0.053zM30.013 25.755h-5.143v-2.993h5.143v2.996zM30.013 21.571h-5.143v-2.98h5.143zM30.013 17.4h-5.143v-2.959h5.143v2.961zM30.013 13.4h-5.143v-3.139h5.143v3.14zM30.013 9.241h-5.143v-3.12h5.143v3.14zM0 3.641v24.801l18.88 3.265v-31.416l-18.88 3.36zM11.191 22.403c-0.072-0.195-0.411-1.021-1.011-2.484-0.599-1.461-0.96-2.312-1.065-2.555h-0.033l-2.025 4.82-2.707-0.183 3.211-6-2.94-6 2.76-0.145 1.824 4.695h0.036l2.060-4.908 2.852-0.18-3.396 6.493 3.5 6.624-3.065-0.18z"></path>
</symbol>
<symbol id="icon-microsoftoffice" viewBox="0 0 32 32">
<path fill="#e74025" style="fill: var(--color18, #e74025)" d="M19.8 0l-17.133 6.667v19.2l6.133-2.6v-15.133l11.133-2.533v22.467l-17.267-2.2 17.133 6.133 9.533-3.067v-25.733z"></path>
</symbol>
<symbol id="icon-microsoftonenote" viewBox="0 0 32 32">
<path fill="#80397b" style="fill: var(--color19, #80397b)" d="M31.929 13.579v4.791c0 0.185-0.067 0.344-0.199 0.479-0.133 0.131-0.293 0.2-0.476 0.2h-1.039v-6.149h1.039c0.184 0 0.344 0.067 0.476 0.199 0.132 0.136 0.199 0.292 0.199 0.481zM31.253 19.757c0.184 0 0.344 0.067 0.476 0.199s0.199 0.293 0.199 0.476v4.809c0 0.187-0.067 0.344-0.199 0.48-0.133 0.129-0.293 0.195-0.476 0.195h-1.039v-6.161zM31.253 6.037c0.184 0 0.356 0.068 0.512 0.2 0.156 0.136 0.235 0.295 0.235 0.48v4.792c0 0.196-0.081 0.361-0.235 0.487-0.156 0.12-0.328 0.18-0.512 0.18h-1.719v14.779c0 0.18-0.071 0.32-0.209 0.441-0.14 0.1-0.299 0.16-0.485 0.16h-8.939v-3.020h6.943v-1.441h-6.943v-1.697h6.943v-1.361h-6.943v-1.74h6.943v-1.34h-6.943v-1.699h6.943v-1.341h-6.943v-1.74h6.943v-1.36h-6.943v-1.7h6.943v-1.42h-6.943v-3.377h9.183c0.021 0 0.1 0.059 0.225 0.18 0.127 0.125 0.203 0.279 0.227 0.459v1.081zM18.195 0.885v30.229l-18.195-3.141v-23.865l18.196-3.221zM13.004 9.845l-2.135 0.14v3.972c-0.024 2.327-0.024 3.671 0 4.028l-4.253-7.759-2.172 0.085v11.008l1.699 0.139v-8.123l4.587 8.353 2.273 0.139z"></path>
</symbol>
<symbol id="icon-microsoftoutlook" viewBox="0 0 32 32">
<path fill="#0072c6" style="fill: var(--color20, #0072c6)" d="M32 9.849v13.971c0 0.307-0.107 0.565-0.317 0.768-0.211 0.205-0.469 0.307-0.773 0.307h-11.396v-9.279l2.133 1.639c0.136 0.113 0.305 0.168 0.505 0.168 0.197 0 0.369-0.055 0.519-0.169zM19.513 7.155h11.396c0.281 0 0.524 0.084 0.724 0.256 0.2 0.171 0.312 0.4 0.331 0.68l-9.825 7.835-2.625-2.065zM17.872 1.152v29.695l-17.872-3.088v-23.433l17.875-3.173zM12.473 16.059c-0.027-1.511-0.417-2.763-1.172-3.752-0.74-0.987-1.7-1.508-2.841-1.552-1.099 0.044-2.039 0.564-2.8 1.552-0.76 0.989-1.14 2.243-1.16 3.752 0.020 1.489 0.42 2.729 1.18 3.721 0.761 0.987 1.699 1.511 2.801 1.568 1.14-0.047 2.099-0.565 2.86-1.56 0.76-0.997 1.16-2.24 1.18-3.729zM8.313 12.749c0.575 0.027 1.059 0.341 1.444 0.956 0.38 0.615 0.58 1.393 0.58 2.336 0 0.961-0.199 1.743-0.58 2.361-0.401 0.619-0.88 0.939-1.461 0.939s-1.060-0.301-1.46-0.92-0.58-1.4-0.58-2.339c0-0.94 0.18-1.721 0.58-2.32 0.379-0.6 0.861-0.92 1.441-0.961z"></path>
</symbol>
<symbol id="icon-microsoftpowerpoint" viewBox="0 0 32 32">
<path fill="#d24726" style="fill: var(--color21, #d24726)" d="M31.312 5.333h-11.389v4.248c0.687-0.52 1.509-0.784 2.473-0.784v4.131h4.099c-0.020 1.159-0.42 2.136-1.201 2.924-0.779 0.789-1.757 1.195-2.917 1.221-0.9-0.027-1.72-0.297-2.439-0.82v2.839h8.959v1.393h-8.961v1.724h8.953v1.376h-8.959v3.12h11.391c0.461 0 0.68-0.243 0.68-0.716v-19.976c0-0.456-0.219-0.68-0.68-0.68zM23.040 12.248v-4.165c1.16 0.027 2.133 0.429 2.917 1.213 0.781 0.784 1.188 1.768 1.208 2.952zM11.008 12.317c-0.071-0.268-0.187-0.476-0.351-0.629-0.16-0.149-0.376-0.259-0.644-0.328-0.3-0.081-0.609-0.12-0.92-0.12l-0.96 0.019v3.999h0.035c0.348 0.021 0.713 0.021 1.1 0 0.38-0.020 0.74-0.12 1.079-0.3 0.417-0.3 0.667-0.7 0.748-1.219 0.080-0.521 0.052-1.021-0.085-1.481zM0 4.079v23.928l18.251 3.153v-30.32zM13.617 14.861c-0.5 1.159-1.247 1.9-2.245 2.22-0.999 0.319-2.077 0.443-3.239 0.372v4.563l-2.401-0.279v-12.536l3.812-0.199c0.707-0.044 1.405 0.033 2.088 0.24 0.687 0.203 1.229 0.612 1.631 1.229 0.4 0.615 0.625 1.328 0.68 2.14 0.049 0.812-0.057 1.563-0.325 2.249z"></path>
</symbol>
<symbol id="icon-microsoftword" viewBox="0 0 32 32">
<path fill="#2b579a" style="fill: var(--color22, #2b579a)" d="M31.999 4.977v22.063c0 0.188-0.067 0.34-0.199 0.461-0.135 0.125-0.295 0.184-0.48 0.184h-11.412v-3.060h9.309v-1.393h-9.317v-1.705h9.309v-1.392h-9.303v-1.72h9.307v-1.376h-9.307v-1.724h9.307v-1.392h-9.307v-1.705h9.307v-1.391h-9.307v-1.74h9.307v-1.325h-9.307v-3.457h11.416c0.199 0 0.36 0.064 0.477 0.199 0.14 0.132 0.2 0.293 0.199 0.475zM18.2 0.855v30.296l-18.2-3.149v-23.912l18.2-3.24zM15.453 9.799l-2.279 0.14-1.461 9.047h-0.033c-0.072-0.428-0.34-1.927-0.82-4.489l-0.852-4.351-2.139 0.107-0.856 4.244c-0.5 2.472-0.779 3.911-0.852 4.315h-0.020l-1.3-8.333-1.96 0.104 2.1 10.511 2.179 0.14 0.82-4.091c0.48-2.4 0.76-3.795 0.82-4.176h0.060c0.081 0.407 0.341 1.832 0.82 4.28l0.82 4.211 2.36 0.14 2.64-11.8z"></path>
</symbol>
<symbol id="icon-mysql" viewBox="0 0 32 32">
<path fill="#4479a1" style="fill: var(--color23, #4479a1)" d="M21.873 7.568c-0.153 0-0.257 0.019-0.365 0.044v0.017h0.019c0.072 0.139 0.195 0.24 0.285 0.364 0.072 0.143 0.133 0.285 0.205 0.427l0.019-0.020c0.125-0.088 0.187-0.229 0.187-0.444-0.053-0.063-0.061-0.125-0.107-0.187-0.053-0.089-0.168-0.133-0.243-0.201zM7.693 25.16h-1.236c-0.040-2.083-0.164-4.040-0.36-5.88h-0.011l-1.88 5.88h-0.94l-1.867-5.88h-0.013c-0.137 1.764-0.224 3.724-0.26 5.88h-1.127c0.073-2.621 0.256-5.080 0.547-7.373h1.533l1.78 5.419h0.011l1.796-5.419h1.46c0.323 2.687 0.512 5.147 0.567 7.373zM13.049 19.72c-0.504 2.727-1.168 4.711-1.989 5.947-0.643 0.955-1.347 1.431-2.111 1.431-0.204 0-0.453-0.061-0.755-0.184v-0.659c0.147 0.023 0.32 0.035 0.515 0.035 0.357 0 0.644-0.1 0.863-0.296 0.263-0.24 0.393-0.509 0.393-0.807 0-0.207-0.103-0.627-0.307-1.259l-1.352-4.208h1.213l0.969 3.147c0.219 0.715 0.311 1.213 0.273 1.497 0.533-1.419 0.904-2.969 1.113-4.644zM29.483 25.16h-3.507v-7.373h1.18v6.467h2.327zM25.056 25.34l-1.355-0.667c0.12-0.101 0.236-0.211 0.34-0.333 0.577-0.675 0.864-1.677 0.864-3.004 0-2.44-0.957-3.661-2.873-3.661-0.939 0-1.672 0.309-2.2 0.929-0.573 0.677-0.861 1.675-0.861 2.993 0 1.296 0.253 2.248 0.765 2.853 0.467 0.547 1.169 0.82 2.111 0.82 0.352 0 0.675-0.044 0.967-0.131l1.767 1.029zM20.667 23.684c-0.3-0.48-0.449-1.253-0.449-2.315 0-1.857 0.565-2.787 1.693-2.787 0.591 0 1.027 0.223 1.303 0.667 0.299 0.483 0.448 1.248 0.448 2.297 0 1.872-0.565 2.811-1.693 2.811-0.593 0-1.027-0.223-1.301-0.673zM18.456 23.117c0 0.627-0.229 1.141-0.688 1.541s-1.071 0.6-1.845 0.6c-0.724 0-1.419-0.229-2.097-0.687l0.316-0.635c0.584 0.293 1.111 0.437 1.587 0.437 0.443 0 0.791-0.097 1.044-0.293 0.251-0.196 0.4-0.472 0.4-0.82 0-0.44-0.307-0.813-0.864-1.127-0.517-0.284-1.551-0.876-1.551-0.876-0.563-0.409-0.843-0.848-0.843-1.569 0-0.6 0.209-1.080 0.627-1.447 0.42-0.371 0.96-0.553 1.627-0.553 0.683 0 1.307 0.181 1.867 0.547l-0.284 0.635c-0.48-0.203-0.953-0.307-1.419-0.307-0.377 0-0.669 0.091-0.872 0.275-0.204 0.181-0.331 0.413-0.331 0.699 0 0.437 0.312 0.813 0.888 1.133 0.524 0.287 1.583 0.893 1.583 0.893 0.577 0.407 0.864 0.84 0.856 1.553zM30.965 15.315c-0.713-0.019-1.267 0.053-1.729 0.251-0.133 0.053-0.347 0.053-0.365 0.223 0.073 0.071 0.084 0.187 0.147 0.285 0.107 0.179 0.291 0.417 0.461 0.543 0.187 0.147 0.373 0.288 0.569 0.413 0.347 0.213 0.74 0.34 1.080 0.555 0.193 0.125 0.391 0.284 0.587 0.417 0.097 0.067 0.16 0.187 0.285 0.229v-0.027c-0.061-0.080-0.080-0.196-0.14-0.285-0.089-0.089-0.179-0.169-0.267-0.257-0.259-0.347-0.58-0.649-0.927-0.9-0.285-0.195-0.909-0.467-1.027-0.793l-0.017-0.019c0.195-0.017 0.427-0.088 0.613-0.141 0.303-0.080 0.58-0.063 0.893-0.141 0.141-0.036 0.284-0.080 0.427-0.125v-0.080c-0.16-0.16-0.28-0.377-0.445-0.527-0.453-0.393-0.956-0.776-1.472-1.097-0.28-0.179-0.635-0.293-0.929-0.445-0.107-0.053-0.285-0.080-0.347-0.169-0.16-0.195-0.253-0.453-0.367-0.685-0.256-0.491-0.507-1.033-0.729-1.551-0.16-0.349-0.257-0.697-0.453-1.017-0.92-1.516-1.916-2.435-3.448-3.333-0.329-0.187-0.724-0.267-1.141-0.365-0.223-0.011-0.445-0.027-0.667-0.036-0.147-0.063-0.288-0.232-0.413-0.313-0.507-0.32-1.819-1.013-2.192-0.096-0.24 0.579 0.356 1.149 0.563 1.443 0.153 0.204 0.347 0.437 0.453 0.667 0.063 0.155 0.080 0.313 0.143 0.475 0.141 0.392 0.276 0.829 0.463 1.196 0.097 0.187 0.204 0.383 0.329 0.551 0.072 0.097 0.195 0.143 0.223 0.303-0.125 0.181-0.133 0.445-0.205 0.667-0.32 1.009-0.195 2.257 0.259 3 0.143 0.221 0.483 0.712 0.937 0.524 0.4-0.16 0.312-0.667 0.427-1.113 0.027-0.107 0.009-0.177 0.064-0.249v0.020c0.125 0.251 0.251 0.489 0.365 0.74 0.275 0.437 0.755 0.891 1.156 1.193 0.213 0.16 0.383 0.437 0.649 0.536v-0.027h-0.020c-0.057-0.077-0.133-0.115-0.205-0.177-0.16-0.16-0.34-0.356-0.467-0.533-0.373-0.503-0.703-1.053-0.996-1.624-0.147-0.28-0.269-0.581-0.387-0.857-0.053-0.107-0.053-0.267-0.143-0.32-0.133 0.195-0.329 0.364-0.427 0.604-0.169 0.384-0.187 0.856-0.251 1.347-0.036 0.009-0.019 0-0.036 0.019-0.285-0.069-0.383-0.365-0.489-0.613-0.267-0.633-0.311-1.651-0.080-2.38 0.063-0.187 0.329-0.776 0.223-0.955-0.056-0.169-0.232-0.267-0.329-0.404-0.116-0.165-0.24-0.38-0.32-0.569-0.213-0.499-0.32-1.051-0.552-1.549-0.107-0.231-0.293-0.472-0.445-0.684-0.169-0.24-0.356-0.409-0.491-0.693-0.044-0.097-0.107-0.259-0.036-0.365 0.019-0.072 0.056-0.1 0.125-0.12 0.117-0.096 0.447 0.029 0.563 0.083 0.329 0.133 0.607 0.259 0.883 0.445 0.125 0.088 0.26 0.257 0.42 0.301h0.187c0.285 0.063 0.607 0.019 0.873 0.097 0.473 0.152 0.9 0.373 1.283 0.613 1.168 0.741 2.128 1.793 2.78 3.048 0.107 0.205 0.153 0.393 0.251 0.607 0.187 0.44 0.417 0.884 0.607 1.309 0.187 0.42 0.367 0.848 0.635 1.196 0.133 0.187 0.669 0.284 0.909 0.381 0.177 0.080 0.453 0.153 0.613 0.251 0.307 0.187 0.605 0.4 0.893 0.605 0.147 0.101 0.591 0.324 0.617 0.504z"></path>
</symbol>
<symbol id="icon-npm" viewBox="0 0 32 32">
<path fill="#cb3837" style="fill: var(--color24, #cb3837)" d="M0 9.779v10.667h8.888v1.776h7.112v-1.776h16v-10.667zM8.888 18.664h-1.776v-5.333h-1.78v5.333h-3.552v-7.108h7.108zM14.221 18.664v1.781h-3.553v-8.889h7.112v7.109h-3.559zM30.223 18.664h-1.773v-5.333h-1.781v5.333h-1.78v-5.333h-1.773v5.333h-3.561v-7.108h10.669zM14.22 13.333h1.78v3.556h-1.78z"></path>
</symbol>
<symbol id="icon-react" viewBox="0 0 32 32">
<path fill="#61dafb" style="fill: var(--color25, #61dafb)" d="M16 13.148c-1.575 0-2.852 1.277-2.852 2.852s1.277 2.852 2.852 2.852v0c1.575 0 2.852-1.277 2.852-2.852s-1.277-2.852-2.852-2.852v0zM8.011 21.673l-0.629-0.16c-4.691-1.185-7.381-3.197-7.381-5.519s2.691-4.333 7.381-5.519l0.629-0.159 0.177 0.624c0.545 1.86 1.163 3.443 1.899 4.957l-0.082-0.186 0.135 0.284-0.135 0.284c-0.656 1.329-1.275 2.912-1.761 4.551l-0.056 0.22zM7.089 11.933c-3.565 1.001-5.753 2.533-5.753 4.061 0 1.527 2.188 3.059 5.753 4.061 0.512-1.62 1.046-2.965 1.662-4.263l-0.086 0.202c-0.531-1.098-1.066-2.443-1.511-3.828l-0.065-0.234zM23.989 21.673l-0.177-0.625c-0.544-1.859-1.162-3.441-1.9-4.954l0.081 0.184-0.135-0.284 0.135-0.284c0.656-1.329 1.275-2.911 1.762-4.55l0.056-0.221 0.177-0.624 0.631 0.159c4.689 1.185 7.38 3.197 7.38 5.52s-2.691 4.333-7.38 5.519zM23.335 15.995c0.64 1.385 1.169 2.747 1.576 4.061 3.567-1.003 5.753-2.535 5.753-4.061 0-1.528-2.188-3.059-5.753-4.061-0.511 1.619-1.045 2.963-1.662 4.262l0.086-0.2zM7.080 11.927l-0.177-0.623c-1.319-4.648-0.919-7.979 1.097-9.141 1.977-1.141 5.152 0.207 8.479 3.621l0.453 0.465-0.453 0.465c-1.146 1.19-2.207 2.482-3.162 3.853l-0.068 0.103-0.18 0.257-0.313 0.027c-1.875 0.151-3.596 0.439-5.264 0.86l0.218-0.047zM9.608 3.087c-0.357 0-0.673 0.077-0.94 0.231-1.325 0.764-1.56 3.42-0.647 7.004 1.21-0.285 2.681-0.521 4.18-0.658l0.131-0.010c0.894-1.264 1.792-2.37 2.756-3.414l-0.020 0.022c-2.080-2.025-4.049-3.175-5.46-3.175zM22.393 30.236c-0.001 0-0.001 0 0 0-1.9 0-4.34-1.431-6.872-4.031l-0.453-0.465 0.453-0.465c1.146-1.19 2.206-2.482 3.16-3.854l0.068-0.103 0.18-0.257 0.312-0.027c1.875-0.15 3.597-0.438 5.267-0.858l-0.218 0.046 0.629-0.159 0.179 0.624c1.316 4.645 0.917 7.977-1.099 9.139-0.449 0.259-0.988 0.411-1.562 0.411-0.016 0-0.031-0-0.047-0l0.002 0zM16.932 25.728c2.080 2.025 4.049 3.175 5.46 3.175h0.001c0.356 0 0.673-0.077 0.939-0.231 1.325-0.764 1.561-3.421 0.647-7.005-1.212 0.286-2.682 0.522-4.182 0.658l-0.13 0.010c-0.893 1.265-1.791 2.371-2.755 3.416l0.020-0.022zM24.92 11.927l-0.629-0.159c-1.453-0.376-3.175-0.664-4.939-0.806l-0.111-0.007-0.312-0.027-0.18-0.257c-1.021-1.474-2.082-2.766-3.237-3.966l0.009 0.010-0.453-0.465 0.453-0.465c3.325-3.413 6.499-4.761 8.479-3.621 2.016 1.163 2.416 4.493 1.099 9.14zM19.667 9.653c1.523 0.139 2.969 0.364 4.312 0.668 0.915-3.584 0.679-6.24-0.647-7.004-1.317-0.761-3.793 0.405-6.4 2.944 0.943 1.022 1.841 2.128 2.666 3.289l0.069 0.103zM9.608 30.236c-0.014 0-0.030 0-0.046 0-0.574 0-1.113-0.152-1.577-0.419l0.015 0.008c-2.016-1.161-2.416-4.492-1.097-9.139l0.176-0.624 0.629 0.159c1.54 0.388 3.239 0.661 5.047 0.812l0.313 0.027 0.179 0.257c1.022 1.475 2.083 2.767 3.239 3.967l-0.010-0.010 0.453 0.465-0.453 0.465c-2.531 2.6-4.971 4.031-6.868 4.031zM8.021 21.667c-0.915 3.584-0.679 6.241 0.647 7.005 1.316 0.751 3.791-0.407 6.4-2.944-0.943-1.022-1.841-2.129-2.667-3.29l-0.069-0.103c-1.629-0.146-3.099-0.382-4.534-0.711l0.224 0.043zM16 22.504c-1.097 0-2.225-0.048-3.355-0.141l-0.313-0.027-0.18-0.257c-0.544-0.768-1.139-1.691-1.697-2.639l-0.103-0.19c-0.452-0.758-0.971-1.732-1.45-2.728l-0.105-0.243-0.133-0.284 0.133-0.284c0.584-1.239 1.102-2.212 1.658-3.161l-0.103 0.191c0.552-0.955 1.159-1.907 1.8-2.829l0.18-0.257 0.313-0.027c1.005-0.090 2.174-0.142 3.355-0.142s2.35 0.052 3.505 0.153l-0.15-0.011 0.312 0.027 0.179 0.257c1.177 1.666 2.294 3.567 3.252 5.56l0.104 0.24 0.135 0.284-0.135 0.284c-1.058 2.232-2.176 4.133-3.439 5.925l0.083-0.125-0.179 0.257-0.312 0.027c-1.129 0.093-2.259 0.141-3.356 0.141zM13.071 21.059c1.973 0.148 3.885 0.148 5.86 0 1.004-1.445 1.978-3.104 2.827-4.836l0.101-0.228c-0.947-1.958-1.922-3.617-3.012-5.19l0.083 0.126c-0.877-0.071-1.898-0.111-2.929-0.111s-2.052 0.040-3.063 0.119l0.134-0.008c-1.008 1.447-1.983 3.106-2.83 4.84l-0.099 0.224c0.951 1.96 1.926 3.619 3.014 5.193l-0.085-0.13z"></path>
</symbol>
<symbol id="icon-udemy" viewBox="0 0 32 32">
<path fill="#ec5252" style="fill: var(--color26, #ec5252)" d="M31.44 17.84c-0.103-0.088-0.229-0.153-0.367-0.186l-0.006-0.001c-0.8 0.813-1.8 1.667-2.667 2.24-0.413 0.267-0.933 0.4-1.267 0.4-0.787 0-1.12-0.733-1.213-1.92-0.146-1.733-0.23-3.751-0.23-5.788 0-0.229 0.001-0.458 0.003-0.687l-0 0.035c0-3.013-0.693-5.067-2.507-5.227l-0.24-0.013c-1.107 0-1.653 0.573-2.36 2.027-0.613 1.253-1.56 3.067-3.307 6.533-1.438 2.839-2.989 5.277-4.746 7.546l0.079-0.106c-0.413 0.507-0.733 0.853-1.040 1.067-0.164 0.114-0.367 0.183-0.586 0.187h-0.001c-0.573 0-1-0.48-1.133-1.613-0.034-0.264-0.053-0.57-0.053-0.88 0-0.014 0-0.028 0-0.042v0.002c0-2.333 0.88-6.133 2.4-11.707 1.107-4.067 0.64-6.84-1.787-6.84h-0.040c-0.547 0-1 0.213-1.44 0.56-0.44 0.333-0.867 1.080-1.28 2.080-0.453 1.12-3.227 6.707-7.653 9.6-0.053 1.080 0.56 2.173 1.827 2.307 1.133 0.107 1.947-0.373 2.987-1.080l-0.213 0.973c-0.221 0.868-0.454 2.042-0.637 3.232l-0.030 0.235c-0.613 5.6 1.96 8.36 4.987 8.36 0.507 0 1.013-0.067 1.507-0.2 3.333-0.84 6.533-4.68 10.333-13.507-0.027 0.44-0.043 0.953-0.043 1.471 0 0.43 0.011 0.858 0.032 1.282l-0.002-0.060c0.253 5.067 2.24 6.573 5.067 6.573 2.133 0 4.12-1.107 5.133-2.493 0.632-0.798 1.023-1.81 1.053-2.913l0-0.007c-0.027-0.653-0.227-1.173-0.56-1.44z"></path>
</symbol>
<symbol id="icon-visualstudio" viewBox="0 0 32 32">
<path fill="#5c2d91" style="fill: var(--color11, #5c2d91)" d="M23.44 0.093c-0.008-0-0.018-0-0.028-0-0.52 0-0.994 0.199-1.35 0.524l0.002-0.001c-0 0-0 0-0.001 0s-0 0-0.001 0h0c-0.024 0.020-0.046 0.040-0.067 0.060l0-0-10.623 11.747-6.2-5.084-0.543-0.467c-0.229-0.191-0.527-0.308-0.852-0.308-0.185 0-0.361 0.038-0.521 0.106l0.009-0.003c-0.014 0.005-0.019 0.008-0.025 0.010l0.009-0.003-2.421 1c-0.043 0.018-0.077 0.033-0.11 0.050l0.007-0.003c-0.027 0.015-0.048 0.028-0.068 0.041l0.005-0.003c-0.024 0.013-0.040 0.023-0.056 0.033l0.006-0.003c-0.026 0.017-0.047 0.032-0.067 0.048l0.003-0.002c-0.017 0.013-0.031 0.023-0.044 0.034l0.002-0.002c-0.022 0.017-0.040 0.033-0.059 0.049l0.001-0.001c-0.018 0.015-0.033 0.030-0.048 0.044l0-0c-0.014 0.014-0.028 0.030-0.041 0.045l-0.001 0.002c-0.014 0.015-0.028 0.032-0.042 0.048l-0.002 0.002c-0.014 0.017-0.029 0.036-0.044 0.055l-0.002 0.003c-0.008 0.011-0.019 0.026-0.029 0.041l-0.003 0.005c-0.012 0.017-0.026 0.039-0.039 0.062l-0.003 0.006c-0.006 0.009-0.015 0.024-0.023 0.039l-0.003 0.007c-0.008 0.014-0.018 0.036-0.029 0.058l-0.003 0.008c-0.006 0.012-0.015 0.031-0.023 0.051l-0.003 0.009c-0.005 0.010-0.012 0.030-0.019 0.049l-0.003 0.009c-0.005 0.011-0.012 0.032-0.019 0.053l-0.003 0.009c-0.005 0.015-0.012 0.039-0.018 0.064l-0.002 0.009c-0.003 0.008-0.007 0.026-0.012 0.044l-0.002 0.009c-0.003 0.016-0.007 0.041-0.010 0.066l-0.001 0.007c-0.002 0.015-0.005 0.038-0.008 0.061l-0 0.005c-0.003 0.033-0.005 0.071-0.005 0.11v14.212c0.003 0.548 0.337 1.017 0.811 1.219l0.009 0.003 2.421 1.017c0.151 0.065 0.328 0.102 0.512 0.102 0.332 0 0.635-0.121 0.868-0.321l-0.002 0.002 0.544-0.467 6.2-5.084 10.624 11.747c0.030 0.029 0.061 0.057 0.093 0.084l0.003 0.002c0.023 0.021 0.048 0.043 0.073 0.064l0.003 0.003c0.020 0.015 0.045 0.034 0.071 0.052l0.007 0.004c0.021 0.016 0.049 0.035 0.077 0.054l0.007 0.005c0.020 0.013 0.048 0.029 0.077 0.045l0.010 0.005c0.019 0.012 0.047 0.027 0.076 0.043l0.011 0.005c0.018 0.009 0.048 0.023 0.078 0.036l0.013 0.005c0.018 0.009 0.049 0.023 0.080 0.035l0.013 0.005c0.018 0.008 0.050 0.019 0.083 0.029l0.014 0.004c0.015 0.006 0.044 0.015 0.074 0.023l0.014 0.003c0.021 0.007 0.057 0.016 0.093 0.024l0.013 0.003c0.017 0.004 0.047 0.011 0.078 0.017l0.012 0.002c0.022 0.004 0.057 0.009 0.091 0.013l0.009 0.001c0.025 0.003 0.059 0.007 0.094 0.009l0.006 0c0.028 0.002 0.061 0.003 0.096 0.004l0.002 0c0.015 0 0.033 0.001 0.051 0.001s0.036-0 0.054-0.001l-0.003 0c0.040-0.002 0.076-0.004 0.112-0.007l-0.008 0.001c0.038-0.003 0.069-0.006 0.099-0.010l-0.010 0.001c0.050-0.006 0.090-0.013 0.129-0.021l-0.013 0.002c0.040-0.007 0.067-0.012 0.093-0.019l-0.013 0.003c0.050-0.012 0.086-0.022 0.121-0.033l-0.014 0.004c0.045-0.012 0.075-0.021 0.105-0.031l-0.014 0.004c0.045-0.016 0.076-0.029 0.106-0.042l-0.013 0.005c0.053-0.020 0.093-0.037 0.131-0.054l-0.012 0.005 6.589-3.168c0.249-0.122 0.459-0.284 0.631-0.48l0.002-0.002c0.040-0.045 0.079-0.093 0.116-0.144l0.004-0.006c-0.003 0.006-0.002 0.003 0 0l0.005-0.010c0.034-0.047 0.069-0.101 0.102-0.157l0.005-0.010c0.025-0.042 0.052-0.094 0.078-0.148l0.005-0.012c-0.001 0.003 0.003-0.004 0.007-0.012l0.005-0.011c0.015-0.033 0.034-0.081 0.050-0.129l0.004-0.014c0.002-0.003 0.008-0.019 0.014-0.035l0.005-0.014c0.011-0.033 0.025-0.081 0.037-0.129l0.003-0.014c0.001-0.003 0.005-0.019 0.009-0.036l0.003-0.014c0.007-0.032 0.015-0.077 0.021-0.123l0.001-0.011c0.002-0.010 0.006-0.033 0.009-0.056l0.001-0.011c0.003-0.033 0.006-0.075 0.008-0.118l0-0.004c0.002-0.029 0.004-0.066 0.005-0.103l0-0.003v-21.481c0-0 0-0.001 0-0.001s0-0.001 0-0.001v0c0-0.006 0-0.014 0-0.021s-0-0.015-0-0.022v0.001c-0.001-0.072-0.006-0.141-0.014-0.21l0.001 0.010c-0.087-0.691-0.515-1.265-1.108-1.555l-0.012-0.005-6.587-3.167c-0.243-0.119-0.528-0.191-0.829-0.196l-0.002-0zM23.996 9.229v13.543l-8.26-6.771zM4.007 11.435l4.129 4.567-4.129 4.565z"></path>
</symbol>
<symbol id="icon-visualstudiocode" viewBox="0 0 32 32">
<path fill="#007acc" style="fill: var(--color27, #007acc)" d="M30.867 3.449l-6.587-3.169c-0.253-0.124-0.55-0.197-0.864-0.197-0.55 0-1.049 0.223-1.409 0.584v0l-12.613 11.507-5.493-4.171c-0.221-0.169-0.501-0.271-0.805-0.271-0.346 0-0.661 0.132-0.897 0.348l-1.762 1.602c-0.269 0.245-0.436 0.596-0.436 0.987s0.167 0.741 0.434 0.984l0.001 0.001 4.764 4.347-4.764 4.347c-0.268 0.245-0.435 0.596-0.435 0.985s0.168 0.742 0.435 0.986l0.001 0.001 1.764 1.601c0.236 0.215 0.551 0.347 0.896 0.347 0.304 0 0.584-0.102 0.808-0.273l-0.003 0.002 5.493-4.171 12.613 11.507c0.36 0.361 0.858 0.584 1.408 0.584 0.314 0 0.611-0.073 0.876-0.203l-0.012 0.005 6.589-3.169c0.675-0.331 1.131-1.013 1.131-1.801 0-0.001 0-0.001 0-0.002v0-21.495c0-0 0-0 0-0 0-0.789-0.457-1.472-1.122-1.797l-0.012-0.005zM24.005 23.264l-9.571-7.264 9.571-7.264z"></path>
</symbol>
<symbol id="icon-phone" viewBox="0 0 32 32">
<path d="M22 20c-2 2-2 4-4 4s-4-2-6-4-4-4-4-6 2-2 4-4-4-8-6-8-6 6-6 6c0 4 4.109 12.109 8 16s12 8 16 8c0 0 6-4 6-6s-6-8-8-6z"></path>
</symbol>
<symbol id="icon-embed2" viewBox="0 0 40 32">
<path d="M26 23l3 3 10-10-10-10-3 3 7 7z"></path>
<path d="M14 9l-3-3-10 10 10 10 3-3-7-7z"></path>
<path d="M21.916 4.704l2.171 0.592-6 22.001-2.171-0.592 6-22.001z"></path>
</symbol>
<symbol id="icon-mail4" viewBox="0 0 32 32">
<path d="M16 0c-8.837 0-16 7.163-16 16s7.163 16 16 16 16-7.163 16-16-7.163-16-16-16zM8 8h16c0.286 0 0.563 0.061 0.817 0.177l-8.817 10.286-8.817-10.287c0.254-0.116 0.531-0.177 0.817-0.177zM6 22v-12c0-0.042 0.002-0.084 0.004-0.125l5.864 6.842-5.8 5.8c-0.045-0.167-0.069-0.34-0.069-0.517zM24 24h-16c-0.177 0-0.35-0.024-0.517-0.069l5.691-5.691 2.826 3.297 2.826-3.297 5.691 5.691c-0.167 0.045-0.34 0.069-0.517 0.069zM26 22c0 0.177-0.024 0.35-0.069 0.517l-5.8-5.8 5.865-6.842c0.003 0.041 0.004 0.083 0.004 0.125v12z"></path>
</symbol>
<symbol id="icon-facebook2" viewBox="0 0 32 32">
<path d="M29 0h-26c-1.65 0-3 1.35-3 3v26c0 1.65 1.35 3 3 3h13v-14h-4v-4h4v-2c0-3.306 2.694-6 6-6h4v4h-4c-1.1 0-2 0.9-2 2v2h6l-1 4h-5v14h9c1.65 0 3-1.35 3-3v-26c0-1.65-1.35-3-3-3z"></path>
</symbol>
<symbol id="icon-instagram" viewBox="0 0 32 32">
<path d="M16 2.881c4.275 0 4.781 0.019 6.462 0.094 1.563 0.069 2.406 0.331 2.969 0.55 0.744 0.288 1.281 0.638 1.837 1.194 0.563 0.563 0.906 1.094 1.2 1.838 0.219 0.563 0.481 1.412 0.55 2.969 0.075 1.688 0.094 2.194 0.094 6.463s-0.019 4.781-0.094 6.463c-0.069 1.563-0.331 2.406-0.55 2.969-0.288 0.744-0.637 1.281-1.194 1.837-0.563 0.563-1.094 0.906-1.837 1.2-0.563 0.219-1.413 0.481-2.969 0.55-1.688 0.075-2.194 0.094-6.463 0.094s-4.781-0.019-6.463-0.094c-1.563-0.069-2.406-0.331-2.969-0.55-0.744-0.288-1.281-0.637-1.838-1.194-0.563-0.563-0.906-1.094-1.2-1.837-0.219-0.563-0.481-1.413-0.55-2.969-0.075-1.688-0.094-2.194-0.094-6.463s0.019-4.781 0.094-6.463c0.069-1.563 0.331-2.406 0.55-2.969 0.288-0.744 0.638-1.281 1.194-1.838 0.563-0.563 1.094-0.906 1.838-1.2 0.563-0.219 1.412-0.481 2.969-0.55 1.681-0.075 2.188-0.094 6.463-0.094zM16 0c-4.344 0-4.887 0.019-6.594 0.094-1.7 0.075-2.869 0.35-3.881 0.744-1.056 0.412-1.95 0.956-2.837 1.85-0.894 0.888-1.438 1.781-1.85 2.831-0.394 1.019-0.669 2.181-0.744 3.881-0.075 1.713-0.094 2.256-0.094 6.6s0.019 4.887 0.094 6.594c0.075 1.7 0.35 2.869 0.744 3.881 0.413 1.056 0.956 1.95 1.85 2.837 0.887 0.887 1.781 1.438 2.831 1.844 1.019 0.394 2.181 0.669 3.881 0.744 1.706 0.075 2.25 0.094 6.594 0.094s4.888-0.019 6.594-0.094c1.7-0.075 2.869-0.35 3.881-0.744 1.050-0.406 1.944-0.956 2.831-1.844s1.438-1.781 1.844-2.831c0.394-1.019 0.669-2.181 0.744-3.881 0.075-1.706 0.094-2.25 0.094-6.594s-0.019-4.887-0.094-6.594c-0.075-1.7-0.35-2.869-0.744-3.881-0.394-1.063-0.938-1.956-1.831-2.844-0.887-0.887-1.781-1.438-2.831-1.844-1.019-0.394-2.181-0.669-3.881-0.744-1.712-0.081-2.256-0.1-6.6-0.1v0z"></path>
<path d="M16 7.781c-4.537 0-8.219 3.681-8.219 8.219s3.681 8.219 8.219 8.219 8.219-3.681 8.219-8.219c0-4.537-3.681-8.219-8.219-8.219zM16 21.331c-2.944 0-5.331-2.387-5.331-5.331s2.387-5.331 5.331-5.331c2.944 0 5.331 2.387 5.331 5.331s-2.387 5.331-5.331 5.331z"></path>
<path d="M26.462 7.456c0 1.060-0.859 1.919-1.919 1.919s-1.919-0.859-1.919-1.919c0-1.060 0.859-1.919 1.919-1.919s1.919 0.859 1.919 1.919z"></path>
</symbol>
<symbol id="icon-whatsapp" viewBox="0 0 32 32">
<path d="M27.281 4.65c-2.994-3-6.975-4.65-11.219-4.65-8.738 0-15.85 7.112-15.85 15.856 0 2.794 0.731 5.525 2.119 7.925l-2.25 8.219 8.406-2.206c2.319 1.262 4.925 1.931 7.575 1.931h0.006c0 0 0 0 0 0 8.738 0 15.856-7.113 15.856-15.856 0-4.238-1.65-8.219-4.644-11.219zM16.069 29.050v0c-2.369 0-4.688-0.637-6.713-1.837l-0.481-0.288-4.987 1.306 1.331-4.863-0.313-0.5c-1.325-2.094-2.019-4.519-2.019-7.012 0-7.269 5.912-13.181 13.188-13.181 3.519 0 6.831 1.375 9.319 3.862 2.488 2.494 3.856 5.8 3.856 9.325-0.006 7.275-5.919 13.188-13.181 13.188zM23.294 19.175c-0.394-0.2-2.344-1.156-2.706-1.288s-0.625-0.2-0.894 0.2c-0.262 0.394-1.025 1.288-1.256 1.556-0.231 0.262-0.462 0.3-0.856 0.1s-1.675-0.619-3.188-1.969c-1.175-1.050-1.975-2.35-2.206-2.744s-0.025-0.613 0.175-0.806c0.181-0.175 0.394-0.463 0.594-0.694s0.262-0.394 0.394-0.662c0.131-0.262 0.069-0.494-0.031-0.694s-0.894-2.15-1.219-2.944c-0.319-0.775-0.65-0.669-0.894-0.681-0.231-0.012-0.494-0.012-0.756-0.012s-0.694 0.1-1.056 0.494c-0.363 0.394-1.387 1.356-1.387 3.306s1.419 3.831 1.619 4.1c0.2 0.262 2.794 4.269 6.769 5.981 0.944 0.406 1.681 0.65 2.256 0.837 0.95 0.3 1.813 0.256 2.494 0.156 0.762-0.113 2.344-0.956 2.675-1.881s0.331-1.719 0.231-1.881c-0.094-0.175-0.356-0.275-0.756-0.475z"></path>
</symbol>
<symbol id="icon-github" viewBox="0 0 32 32">
<path d="M16 0.395c-8.836 0-16 7.163-16 16 0 7.069 4.585 13.067 10.942 15.182 0.8 0.148 1.094-0.347 1.094-0.77 0-0.381-0.015-1.642-0.022-2.979-4.452 0.968-5.391-1.888-5.391-1.888-0.728-1.849-1.776-2.341-1.776-2.341-1.452-0.993 0.11-0.973 0.11-0.973 1.606 0.113 2.452 1.649 2.452 1.649 1.427 2.446 3.743 1.739 4.656 1.33 0.143-1.034 0.558-1.74 1.016-2.14-3.554-0.404-7.29-1.777-7.29-7.907 0-1.747 0.625-3.174 1.649-4.295-0.166-0.403-0.714-2.030 0.155-4.234 0 0 1.344-0.43 4.401 1.64 1.276-0.355 2.645-0.532 4.005-0.539 1.359 0.006 2.729 0.184 4.008 0.539 3.054-2.070 4.395-1.64 4.395-1.64 0.871 2.204 0.323 3.831 0.157 4.234 1.026 1.12 1.647 2.548 1.647 4.295 0 6.145-3.743 7.498-7.306 7.895 0.574 0.497 1.085 1.47 1.085 2.963 0 2.141-0.019 3.864-0.019 4.391 0 0.426 0.288 0.925 1.099 0.768 6.354-2.118 10.933-8.113 10.933-15.18 0-8.837-7.164-16-16-16z"></path>
</symbol>
<symbol id="icon-linkedin" viewBox="0 0 32 32">
<path d="M29 0h-26c-1.65 0-3 1.35-3 3v26c0 1.65 1.35 3 3 3h26c1.65 0 3-1.35 3-3v-26c0-1.65-1.35-3-3-3zM12 26h-4v-14h4v14zM10 10c-1.106 0-2-0.894-2-2s0.894-2 2-2c1.106 0 2 0.894 2 2s-0.894 2-2 2zM26 26h-4v-8c0-1.106-0.894-2-2-2s-2 0.894-2 2v8h-4v-14h4v2.481c0.825-1.131 2.087-2.481 3.5-2.481 2.488 0 4.5 2.238 4.5 5v9z"></path>
</symbol>
<symbol id="icon-html-five" viewBox="0 0 32 32">
<path d="M1.892 0l2.567 28.801 11.524 3.199 11.554-3.204 2.572-28.796h-28.216zM24.52 9.42h-13.517l0.322 3.617h12.874l-0.97 10.844-7.245 2.008-7.237-2.008-0.495-5.547h3.547l0.252 2.82 3.933 1.060 0.009-0.002 3.935-1.062 0.408-4.58h-12.242l-0.953-10.681h17.694l-0.316 3.532z"></path>
</symbol>
</defs>
</svg>
